#!OML:ASF G:\JayActor3\Patient Classification 1\Patient 1\Session 5\male.ASF
:FULLY-SPECIFIED
:DEGREES
557
root -6.03549 17.5081 -5.51413 214.359 -86.7978 -218.093
lowerback 3.40698 -1.39885 -0.45304
upperback 1.64759 -1.90571 -0.788329
thorax -0.232253 -0.962619 -0.485863
lowerneck -5.82721 1.10772 2.69513
upperneck 10.8016 1.05214 0.609095
head 4.64477 0.622103 -0.216384
rclavicle -4.52794e-014 -4.07509e-015
rhumerus -34.5924 -9.4038 -86.0059
rradius 26.1761
rwrist 4.22066
rhand -18.6401 -10.2312
rfingers 7.12502
rthumb 7.65251 -40.0727
lclavicle -4.52794e-014 -4.07509e-015
lhumerus -31.5074 4.32118 84.6734
lradius 28.412
lwrist 18.1168
lhand -18.5021 13.2442
lfingers 7.12502
lthumb 7.78571 43.0808
rfemur -25.2479 6.91534 18.5237
rtibia 44.9255
rfoot -2.73608 5.60223
rtoes -11.6447
lfemur 3.0025 10.1621 -23.9891
ltibia 25.768
lfoot 2.68219 -5.93048
ltoes -25.3385
558
root -5.92877 17.4995 -5.51449 213.013 -86.8416 -216.799
lowerback 3.29463 -1.38507 -0.375498
upperback 1.65089 -1.88342 -0.771896
thorax -0.167937 -0.950955 -0.516314
lowerneck -5.8042 1.09741 2.68294
upperneck 10.834 1.03893 0.608593
head 4.65167 0.614946 -0.21519
rclavicle -1.60876e-014 -1.2921e-015
rhumerus -34.7543 -9.50776 -85.9629
rradius 26.0684
rwrist 4.23442
rhand -18.6053 -10.2738
rfingers 7.12502
rthumb 7.68608 -40.1141
lclavicle -1.60876e-014 -1.2921e-015
lhumerus -31.6134 4.6366 84.4987
lradius 27.9255
lwrist 17.9693
lhand -18.5846 13.1974
lfingers 7.12502
lthumb 7.70615 43.037
rfemur -24.858 6.9219 18.7132
rtibia 46.6329
rfoot -3.34533 5.27659
rtoes -12.2732
lfemur 2.29472 10.1356 -23.9615
ltibia 26.4956
lfoot 2.38547 -5.83308
ltoes -25.3361
559
root -5.82409 17.4908 -5.51561 211.748 -86.882 -215.584
lowerback 3.16689 -1.37284 -0.309842
upperback 1.64725 -1.86355 -0.756364
thorax -0.101754 -0.940451 -0.541194
lowerneck -5.78991 1.09062 2.67193
upperneck 10.8865 1.02908 0.611042
head 4.66776 0.609704 -0.212921
rclavicle -2.16489e-015 1.93815e-015
rhumerus -34.9078 -9.60139 -85.9199
rradius 25.9337
rwrist 4.27168
rhand -18.5925 -10.2883
rfingers 7.12502
rthumb 7.69851 -40.1282
lclavicle -2.16489e-015 1.93815e-015
lhumerus -31.7394 4.98891 84.2956
lradius 27.4462
lwrist 17.768
lhand -18.5914 13.254
lfingers 7.12502
lthumb 7.6995 43.0938
rfemur -24.4228 6.89653 18.9111
rtibia 48.3597
rfoot -3.92845 4.75093
rtoes -12.8657
lfemur 1.62343 10.1025 -23.9295
ltibia 27.1596
lfoot 2.11177 -5.77188
ltoes -25.3964
560
root -5.72143 17.4818 -5.51713 210.726 -86.923 -214.617
lowerback 3.03394 -1.3634 -0.258515
upperback 1.63846 -1.84793 -0.742929
thorax -0.0375386 -0.932085 -0.560066
lowerneck -5.77746 1.08515 2.66019
upperneck 10.9535 1.02036 0.614549
head 4.68959 0.605063 -0.210057
rclavicle -1.39778e-014 -7.25564e-015
rhumerus -35.0582 -9.69656 -85.8669
rradius 25.7785
rwrist 4.34946
rhand -18.5793 -10.2865
rfingers 7.12502
rthumb 7.71118 -40.1259
lclavicle -1.39778e-014 -7.25564e-015
lhumerus -31.8887 5.35132 84.0818
lradius 26.9705
lwrist 17.5776
lhand -18.5814 13.3012
lfingers 7.12502
lthumb 7.70922 43.1407
rfemur -23.9208 6.83465 19.1058
rtibia 50.0769
rfoot -4.43351 4.08051
rtoes -13.3744
lfemur 1.00186 10.0548 -23.9005
ltibia 27.754
lfoot 1.8584 -5.74464
ltoes -25.5201
561
root -5.61999 17.4735 -5.51898 209.738 -86.9707 -213.685
lowerback 2.90678 -1.35763 -0.209217
upperback 1.62057 -1.83739 -0.727725
thorax 0.0142312 -0.926205 -0.575492
lowerneck -5.76848 1.08256 2.64327
upperneck 11.0348 1.0147 0.624475
head 4.7174 0.602054 -0.203854
rclavicle 1.40434e-014 4.07509e-015
rhumerus -35.2084 -9.79402 -85.8028
rradius 25.6069
rwrist 4.46844
rhand -18.5556 -10.2768
rfingers 7.12502
rthumb 7.73412 -40.1154
lclavicle 1.40434e-014 4.07509e-015
lhumerus -32.0587 5.72877 83.8545
lradius 26.4955
lwrist 17.3807
lhand -18.5596 13.343
lfingers 7.12502
lthumb 7.73024 43.1817
rfemur -23.3541 6.75084 19.3082
rtibia 51.7536
rfoot -4.81701 3.29691
rtoes -13.7048
lfemur 0.421199 9.99239 -23.8626
ltibia 28.281
lfoot 1.64253 -5.75153
ltoes -25.6169
562
root -5.51983 17.4665 -5.52103 208.853 -87.029 -212.863
lowerback 2.78826 -1.35573 -0.159864
upperback 1.59655 -1.8322 -0.712616
thorax 0.0548628 -0.922967 -0.590539
lowerneck -5.75733 1.08044 2.624
upperneck 11.1223 1.00918 0.63878
head 4.74699 0.599205 -0.195722
rclavicle -1.1545e-014 -1.68967e-015
rhumerus -35.3583 -9.9102 -85.7216
rradius 25.4247
rwrist 4.6353
rhand -18.5241 -10.2551
rfingers 7.12502
rthumb 7.76446 -40.0926
lclavicle -1.1545e-014 -1.68967e-015
lhumerus -32.2443 6.11817 83.6136
lradius 26.0193
lwrist 17.1654
lhand -18.5237 13.3785
lfingers 7.12502
lthumb 7.76485 43.2159
rfemur -22.7145 6.64665 19.5136
rtibia 53.3632
rfoot -5.0436 2.43364
rtoes -13.8646
lfemur -0.107378 9.92062 -23.8161
ltibia 28.7322
lfoot 1.46061 -5.78761
ltoes -25.6988
563
root -5.42008 17.4611 -5.52339 207.721 -87.0973 -211.788
lowerback 2.67885 -1.35563 -0.0964546
upperback 1.56035 -1.82915 -0.693045
thorax 0.0776334 -0.920677 -0.608372
lowerneck -5.74636 1.07823 2.59828
upperneck 11.2164 1.00312 0.659629
head 4.77902 0.596131 -0.184215
rclavicle 4.58905e-014 1.98785e-016
rhumerus -35.5124 -10.0452 -85.6232
rradius 25.2372
rwrist 4.84837
rhand -18.487 -10.23
rfingers 7.12502
rthumb 7.80032 -40.0661
lclavicle 4.58905e-014 1.98785e-016
lhumerus -32.4426 6.51948 83.358
lradius 25.5386
lwrist 16.9276
lhand -18.4814 13.4016
lfingers 7.12502
lthumb 7.80572 43.2375
rfemur -22.0147 6.54505 19.7395
rtibia 54.8805
rfoot -5.10652 1.51377
rtoes -13.8721
lfemur -0.599364 9.84802 -23.7471
ltibia 29.1045
lfoot 1.31908 -5.84186
ltoes -25.7124
564
root -5.32089 17.4578 -5.52603 206.628 -87.1706 -210.745
lowerback 2.57394 -1.35696 -0.0311782
upperback 1.51673 -1.82813 -0.676066
thorax 0.0901402 -0.919372 -0.629602
lowerneck -5.72756 1.07523 2.5698
upperneck 11.3041 0.995936 0.685987
head 4.80701 0.592583 -0.170441
rclavicle 5.53996e-015 -3.47873e-015
rhumerus -35.6663 -10.2027 -85.5118
rradius 25.0481
rwrist 5.09123
rhand -18.4573 -10.2016
rfingers 7.12502
rthumb 7.82897 -40.0367
lclavicle 5.53996e-015 -3.47873e-015
lhumerus -32.6513 6.92908 83.0854
lradius 25.0606
lwrist 16.6615
lhand -18.4341 13.418
lfingers 7.12502
lthumb 7.85133 43.2522
rfemur -21.2538 6.44341 19.9654
rtibia 56.2873
rfoot -4.98917 0.568303
rtoes -13.5857
lfemur -1.04773 9.78233 -23.6722
ltibia 29.3888
lfoot 1.22396 -5.91741
ltoes -25.6546
565
root -5.22233 17.4566 -5.52894 205.539 -87.2483 -209.701
lowerback 2.46649 -1.35949 0.039292
upperback 1.46983 -1.82875 -0.663332
thorax 0.100414 -0.91886 -0.658054
lowerneck -5.71415 1.07151 2.54632
upperneck 11.3867 0.987263 0.712586
head 4.8343 0.588552 -0.157542
rclavicle -1.49666e-015 -9.88954e-015
rhumerus -35.8128 -10.3799 -85.396
rradius 24.8619
rwrist 5.34179
rhand -18.4432 -10.1772
rfingers 7.12502
rthumb 7.84262 -40.0117
lclavicle -1.49666e-015 -9.88954e-015
lhumerus -32.8617 7.34072 82.7959
lradius 24.588
lwrist 16.3722
lhand -18.3793 13.4212
lfingers 7.12502
lthumb 7.90425 43.2534
rfemur -20.4267 6.3472 20.1933
rtibia 57.5629
rfoot -4.67132 -0.393094
rtoes -13.011
lfemur -1.45257 9.72513 -23.5912
ltibia 29.5807
lfoot 1.17479 -6.01388
ltoes -25.5514
566
root -5.12408 17.4578 -5.5321 204.452 -87.3249 -208.647
lowerback 2.35407 -1.36107 0.11266
upperback 1.42073 -1.82822 -0.655039
thorax 0.111004 -0.917761 -0.692794
lowerneck -5.69712 1.06565 2.52195
upperneck 11.4546 0.975969 0.742354
head 4.85538 0.583315 -0.143603
rclavicle -9.752e-015 -3.27995e-015
rhumerus -35.952 -10.5674 -85.2799
rradius 24.6859
rwrist 5.57691
rhand -18.4392 -10.1708
rfingers 7.12502
rthumb 7.84648 -40.0052
lclavicle -9.752e-015 -3.27995e-015
lhumerus -33.0729 7.75606 82.4908
lradius 24.1232
lwrist 16.0571
lhand -18.3183 13.3989
lfingers 7.12502
lthumb 7.96313 43.2289
rfemur -19.5376 6.26575 20.4181
rtibia 58.6922
rfoot -4.16771 -1.34195
rtoes -12.1036
lfemur -1.81444 9.67571 -23.508
ltibia 29.6723
lfoot 1.17297 -6.1341
ltoes -25.4503
567
root -5.02663 17.4616 -5.53551 203.503 -87.3955 -207.725
lowerback 2.23051 -1.36191 0.179087
upperback 1.3764 -1.82704 -0.65226
thorax 0.132758 -0.916389 -0.729681
lowerneck -5.68327 1.06006 2.50033
upperneck 11.5068 0.965208 0.772673
head 4.87138 0.578513 -0.12995
rclavicle -7.04812e-015 -4.27387e-015
rhumerus -36.0742 -10.7497 -85.1726
rradius 24.5226
rwrist 5.77245
rhand -18.451 -10.1754
rfingers 7.12502
rthumb 7.8351 -40.0102
lclavicle -7.04812e-015 -4.27387e-015
lhumerus -33.2796 8.17237 82.175
lradius 23.6757
lwrist 15.7281
lhand -18.2621 13.3633
lfingers 7.12502
lthumb 8.01738 43.1912
rfemur -18.5789 6.19963 20.6298
rtibia 59.6607
rfoot -3.48511 -2.24504
rtoes -10.9001
lfemur -2.12775 9.63279 -23.4313
ltibia 29.6631
lfoot 1.21705 -6.26817
ltoes -25.3518
568
root -4.92988 17.4678 -5.53925 202.725 -87.459 -206.965
lowerback 2.09196 -1.36133 0.234974
upperback 1.33732 -1.82438 -0.653773
thorax 0.16851 -0.914319 -0.765579
lowerneck -5.67076 1.05207 2.48177
upperneck 11.5415 0.951943 0.7995
head 4.88116 0.572448 -0.118227
rclavicle -2.76231e-014 -4.94477e-015
rhumerus -36.1799 -10.9203 -85.0753
rradius 24.3789
rwrist 5.92338
rhand -18.4774 -10.1847
rfingers 7.12502
rthumb 7.80961 -40.0205
lclavicle -2.76231e-014 -4.94477e-015
lhumerus -33.4818 8.5813 81.8563
lradius 23.2531
lwrist 15.3947
lhand -18.2053 13.3213
lfingers 7.12502
lthumb 8.07217 43.1472
rfemur -17.5581 6.15359 20.8258
rtibia 60.4602
rfoot -2.6462 -3.08148
rtoes -9.58003
lfemur -2.39963 9.59058 -23.362
ltibia 29.5587
lfoot 1.30694 -6.41849
ltoes -25.2756
569
root -4.83394 17.4759 -5.54338 202.126 -87.5168 -206.377
lowerback 1.94003 -1.36029 0.278558
upperback 1.30384 -1.8215 -0.658421
thorax 0.217787 -0.912185 -0.798247
lowerneck -5.66081 1.04218 2.4638
upperneck 11.5631 0.936675 0.82499
head 4.88663 0.565381 -0.107208
rclavicle 1.33807e-014 -4.65902e-015
rhumerus -36.2731 -11.0684 -84.9908
rradius 24.259
rwrist 6.02821
rhand -18.503 -10.1977
rfingers 7.12502
rthumb 7.78483 -40.0344
lclavicle 1.33807e-014 -4.65902e-015
lhumerus -33.6813 8.98363 81.5363
lradius 22.8576
lwrist 15.0566
lhand -18.1617 13.2778
lfingers 7.12502
lthumb 8.11425 43.102
rfemur -16.4758 6.12605 21.0069
rtibia 61.0871
rfoot -1.66752 -3.82374
rtoes -8.25615
lfemur -2.6321 9.54682 -23.298
ltibia 29.3707
lfoot 1.4435 -6.59068
ltoes -25.1955
570
root -4.73852 17.4854 -5.54806 201.567 -87.5668 -205.82
lowerback 1.77497 -1.35606 0.313506
upperback 1.27523 -1.81468 -0.664778
thorax 0.279689 -0.908092 -0.828316
lowerneck -5.65151 1.02969 2.44946
upperneck 11.5711 0.918318 0.848212
head 4.88724 0.556844 -0.0978344
rclavicle -5.41704e-014 -6.80837e-015
rhumerus -36.3535 -11.2018 -84.9158
rradius 24.1642
rwrist 6.10139
rhand -18.5247 -10.208
rfingers 7.12502
rthumb 7.76393 -40.0454
lclavicle -5.41704e-014 -6.80837e-015
lhumerus -33.8781 9.37024 81.22
lradius 22.4979
lwrist 14.7206
lhand -18.1271 13.2591
lfingers 7.12502
lthumb 8.14766 43.082
rfemur -15.3475 6.11924 21.1789
rtibia 61.5445
rfoot -0.550902 -4.45378
rtoes -7.07031
lfemur -2.83911 9.50281 -23.2324
ltibia 29.1186
lfoot 1.6216 -6.78452
ltoes -25.1039
571
root -4.64327 17.4956 -5.55317 200.721 -87.611 -204.966
lowerback 1.60249 -1.34819 0.354052
upperback 1.24706 -1.80305 -0.668288
thorax 0.346227 -0.901538 -0.858852
lowerneck -5.64743 1.01355 2.43149
upperneck 11.5763 0.894962 0.875206
head 4.88776 0.545928 -0.0868076
rclavicle 2.16305e-014 2.90101e-015
rhumerus -36.4252 -11.3129 -84.8503
rradius 24.091
rwrist 6.14324
rhand -18.5357 -10.2145
rfingers 7.12502
rthumb 7.75334 -40.0523
lclavicle 2.16305e-014 2.90101e-015
lhumerus -34.0762 9.73802 80.9121
lradius 22.1746
lwrist 14.4034
lhand -18.1077 13.2613
lfingers 7.12502
lthumb 8.1664 43.0835
rfemur -14.1864 6.13663 21.3577
rtibia 61.8373
rfoot 0.699256 -4.97744
rtoes -6.06334
lfemur -3.03278 9.45987 -23.1499
ltibia 28.8222
lfoot 1.83487 -6.99569
ltoes -24.9702
